# xmcd
#
# Track frame offsets: 
#        150
#        12837
#        23707
#        38737
#        51597
#        66232
#        78792
#        93290
#        108097
#        119904
#        133755
#        148600
#        160210
#        174557
#        186942
#        200632
#        214850
#        228934
#
# Disc length: 3264 seconds
#
# Revision: 2
# Processed by: cddbd v1.5.2PL0 Copyright (c) Steve Scherf et al.
# Submitted via: ExactAudioCopy v0.99pb5
#
DISCID=fd0cbe12
DTITLE=Xavier Cugat - Besame  Mucho
DYEAR=1999
DGENRE=Swing
TTITLE0=Brazil (Aquarela do Brasil)
TTITLE1=Chica, Chica, Boom, Chic
TTITLE2=Amor
TTITLE3=South America, take it away
TTITLE4=My Shawl (ombo)
TTITLE5=Thanks for the dream (Mi sueno azul)
TTITLE6=Tico-Tico
TTITLE7=Miami Beach Rhumba
TTITLE8=Oye Negra
TTITLE9=Good, good, good (That's you,that' you)
TTITLE10=La Cumparista ((The masked one)
TTITLE11=Cuanto le gusta
TTITLE12=Jalouise (Jealousy)
TTITLE13=Besame Mucho
TTITLE14=Isle of Capri
TTITLE15=Siboney
TTITLE16=Quiereme Mucho
TTITLE17=Tabu'
EXTD=
EXTT0=
EXTT1=
EXTT2=
EXTT3=
EXTT4=
EXTT5=
EXTT6=
EXTT7=
EXTT8=
EXTT9=
EXTT10=
EXTT11=
EXTT12=
EXTT13=
EXTT14=
EXTT15=
EXTT16=
EXTT17=
PLAYORDER=
